<svg width="88" height="88" viewBox="0 0 88 88" fill="none" xmlns="http://www.w3.org/2000/svg">
<circle cx="44" cy="44" r="44" fill="#84C99D"/>
<path d="M28.1111 50.1111C29.462 51.0334 33.0643 52.3246 36.6666 50.1111" stroke="black" stroke-width="2" stroke-linecap="round" stroke-linejoin="round"/>
<path d="M52.5555 50.1111C53.9064 51.0334 57.5088 52.3246 61.1111 50.1111" stroke="black" stroke-width="2" stroke-linecap="round" stroke-linejoin="round"/>
<path d="M47.8889 63.9619C47.8889 64.7998 47.3192 65.9916 46.344 67.0296C45.3628 68.074 44.2512 68.6667 43.4568 68.6667C42.7291 68.6667 41.9059 68.1473 41.2038 67.1418C40.5158 66.1566 40.1111 64.9266 40.1111 63.9619C40.1111 63.2171 40.5835 62.4673 41.4888 61.8528C42.3866 61.2433 43.55 60.8889 44.5432 60.8889C46.4782 60.8889 47.8889 62.1976 47.8889 63.9619Z" stroke="black" stroke-width="2"/>
</svg>
