<svg width="86" height="86" viewBox="0 0 86 86" fill="none" xmlns="http://www.w3.org/2000/svg">
<circle cx="43" cy="43" r="43" fill="#F89790"/>
<path d="M28.6666 44.1945L34.6388 50.1667" stroke="black" stroke-width="2" stroke-linecap="round" stroke-linejoin="round"/>
<path d="M52.5555 44.1945L46.5833 50.1667" stroke="black" stroke-width="2" stroke-linecap="round" stroke-linejoin="round"/>
<path d="M49.1667 61.1556C49.1667 62.3131 48.6354 63.514 47.7909 64.4348C46.9402 65.3624 45.8835 65.8889 44.941 65.8889C43.7459 65.8889 40.9627 65.5556 38.4877 64.8643C37.2491 64.5183 36.1589 64.1016 35.4002 63.634C34.5889 63.134 34.4445 62.7624 34.4445 62.5889C34.4445 62.2379 34.6371 61.7866 35.1737 61.251C35.7016 60.7241 36.4673 60.2146 37.3606 59.7666C39.1697 58.8592 41.2344 58.3334 42.3281 58.3334C43.5415 58.3334 45.3806 58.5523 46.8806 59.0961C47.6313 59.3683 48.2302 59.6981 48.6264 60.0663C49.0046 60.4178 49.1667 60.7693 49.1667 61.1556Z" stroke="black" stroke-width="2"/>
</svg>
