<svg width="86" height="86" viewBox="0 0 86 86" fill="none" xmlns="http://www.w3.org/2000/svg">
<circle cx="43" cy="43" r="43" fill="#C78EC0"/>
<path d="M29.8611 25.0833C32.0793 24.6852 34.9801 23.8889 37.0278 21.5" stroke="black" stroke-width="2" stroke-linecap="round"/>
<path d="M56.1389 25.0833C54.2904 24.6852 51.873 23.8889 50.1667 21.5" stroke="black" stroke-width="2" stroke-linecap="round"/>
<path d="M57.5277 42.4029C57.5277 42.4451 57.5213 42.5245 57.3733 42.6661C57.2068 42.8256 56.9079 43.012 56.4325 43.1979C55.4833 43.5691 54.0984 43.8379 52.4566 44.0219C49.192 44.3878 45.219 44.389 42.4027 44.389C39.5836 44.389 35.916 44.3875 32.9569 44.0232C31.4679 43.8399 30.2432 43.5736 29.4167 43.2128C28.5405 42.8302 28.4722 42.5176 28.4722 42.4029C28.4722 40.6551 29.1357 38.238 31.1579 36.2581C33.1669 34.2911 36.6238 32.6528 42.4027 32.6528C53.9372 32.6528 57.5277 39.1294 57.5277 42.4029Z" stroke="black" stroke-width="2"/>
<path d="M63.9028 32.8472C62.9472 32.3694 61.9121 29.8611 61.5139 28.6666C61.5139 28.6666 65.0972 30.2592 65.0972 31.0555C65.0972 31.8518 64.8584 33.325 63.9028 32.8472Z" stroke="white" stroke-width="2" stroke-linecap="round" stroke-linejoin="round"/>
</svg>
