<svg width="88" height="88" viewBox="0 0 88 88" fill="none" xmlns="http://www.w3.org/2000/svg">
<path d="M87.3848 36.6261C87.656 38.2333 87.8401 39.8701 87.9319 41.5316L86.9335 41.5868C86.9776 42.3855 87 43.1901 87 44C87 44.8099 86.9776 45.6145 86.9335 46.4132L87.9319 46.4685C87.8401 48.1299 87.656 49.7667 87.3848 51.3739L86.3988 51.2075C86.1289 52.8066 85.7709 54.3756 85.3297 55.9093L86.2908 56.1857C85.8331 57.7769 85.2881 59.331 84.6613 60.8427L83.7375 60.4596C83.1189 61.9515 82.4186 63.401 81.6423 64.8027L82.5171 65.2872C81.7175 66.7309 80.8392 68.1248 79.8878 69.4633L79.0727 68.8839C78.1396 70.1967 77.1345 71.4549 76.0633 72.6528L76.8087 73.3194C75.7115 74.5464 74.5464 75.7115 73.3194 76.8087L72.6528 76.0633C71.4549 77.1345 70.1967 78.1396 68.8839 79.0727L69.4633 79.8878C68.1248 80.8392 66.7309 81.7175 65.2872 82.5171L64.8027 81.6423C63.401 82.4186 61.9515 83.1189 60.4596 83.7375L60.8427 84.6613C59.331 85.2881 57.7769 85.8331 56.1857 86.2908L55.9093 85.3297C54.3756 85.7709 52.8066 86.1289 51.2075 86.3988L51.3739 87.3848C49.7667 87.656 48.1299 87.8401 46.4685 87.9319L46.4132 86.9335C45.6145 86.9776 44.8099 87 44 87C43.1901 87 42.3855 86.9776 41.5868 86.9335L41.5315 87.9319C39.8701 87.8401 38.2333 87.656 36.6261 87.3848L36.7925 86.3988C35.1934 86.1289 33.6244 85.7709 32.0907 85.3297L31.8143 86.2908C30.2231 85.8331 28.669 85.2881 27.1573 84.6613L27.5404 83.7375C26.0485 83.1189 24.599 82.4186 23.1973 81.6423L22.7128 82.5171C21.2692 81.7175 19.8752 80.8392 18.5367 79.8878L19.1161 79.0727C17.8033 78.1396 16.5451 77.1345 15.3472 76.0633L14.6806 76.8087C13.4536 75.7115 12.2885 74.5464 11.1913 73.3194L11.9367 72.6528C10.8655 71.4549 9.86045 70.1967 8.9273 68.8839L8.11223 69.4633C7.16085 68.1248 6.28247 66.7309 5.48289 65.2872L6.35768 64.8027C5.58137 63.401 4.88111 61.9515 4.26247 60.4596L3.33875 60.8427C2.71189 59.331 2.16687 57.7769 1.70923 56.1857L2.67027 55.9093C2.22914 54.3756 1.87106 52.8066 1.60125 51.2075L0.615188 51.3739C0.343997 49.7667 0.15995 48.1299 0.0680749 46.4685L1.06655 46.4132C1.02238 45.6145 1 44.8099 1 44C1 43.1901 1.02238 42.3855 1.06655 41.5868L0.068075 41.5315C0.15995 39.8701 0.343997 38.2333 0.615187 36.6261L1.60125 36.7925C1.87106 35.1934 2.22913 33.6244 2.67027 32.0907L1.70923 31.8143C2.16687 30.2231 2.71189 28.669 3.33875 27.1573L4.26247 27.5404C4.88111 26.0485 5.58137 24.599 6.35768 23.1973L5.48289 22.7128C6.28246 21.2692 7.16085 19.8752 8.11223 18.5367L8.9273 19.1161C9.86045 17.8033 10.8655 16.5451 11.9367 15.3472L11.1913 14.6806C12.2885 13.4536 13.4536 12.2885 14.6806 11.1913L15.3472 11.9367C16.5451 10.8655 17.8033 9.86045 19.1161 8.9273L18.5367 8.11223C19.8752 7.16085 21.2692 6.28246 22.7128 5.48289L23.1973 6.35768C24.599 5.58136 26.0485 4.88111 27.5404 4.26247L27.1573 3.33874C28.669 2.71189 30.2231 2.16687 31.8143 1.70923L32.0907 2.67027C33.6244 2.22913 35.1934 1.87106 36.7925 1.60125L36.6261 0.615187C38.2333 0.343997 39.8701 0.15995 41.5316 0.0680748L41.5868 1.06655C42.3855 1.02238 43.1901 1 44 1C44.8099 1 45.6145 1.02238 46.4132 1.06655L46.4685 0.0680751C48.1299 0.15995 49.7667 0.343997 51.3739 0.615188L51.2075 1.60125C52.8066 1.87106 54.3756 2.22914 55.9093 2.67027L56.1857 1.70923C57.7769 2.16688 59.331 2.71189 60.8427 3.33875L60.4596 4.26247C61.9515 4.88112 63.401 5.58137 64.8027 6.35768L65.2872 5.48289C66.7309 6.28247 68.1248 7.16085 69.4633 8.11224L68.8839 8.92731C70.1967 9.86045 71.4549 10.8655 72.6528 11.9367L73.3194 11.1913C74.5464 12.2885 75.7115 13.4536 76.8087 14.6806L76.0633 15.3472C77.1345 16.5451 78.1396 17.8033 79.0727 19.1161L79.8878 18.5367C80.8392 19.8752 81.7175 21.2692 82.5171 22.7128L81.6423 23.1973C82.4186 24.599 83.1189 26.0485 83.7375 27.5404L84.6613 27.1573C85.2881 28.669 85.8331 30.2231 86.2908 31.8143L85.3297 32.0907C85.7709 33.6244 86.1289 35.1934 86.3988 36.7925L87.3848 36.6261Z" fill="#F4F2EE" stroke="#AE9898" stroke-width="2" stroke-dasharray="5 5"/>
<circle cx="33" cy="35" r="3" fill="#AE9898"/>
<circle cx="55" cy="35" r="3" fill="#AE9898"/>
<circle cx="77" cy="13" r="10.5" fill="#F4F2EE" stroke="#AE9898"/>
<path d="M76.1442 17.4087V9.86612H78.0511V17.4087H76.1442ZM73.3263 14.5909V12.6839H80.869V14.5909H73.3263Z" fill="#AE9898"/>
<path d="M37 50H51" stroke="#AE9898" stroke-width="3" stroke-linecap="round"/>
</svg>
