<svg width="170" height="40" viewBox="0 0 170 40" fill="none" xmlns="http://www.w3.org/2000/svg">
<rect width="170" height="40" rx="6" fill="#FEE500"/>
<path d="M15 28L15.8 24L19 25L15 28Z" fill="black" stroke="black" stroke-width="0.5" stroke-linejoin="round"/>
<ellipse cx="21" cy="19" rx="9" ry="7" fill="black"/>
<path d="M49.076 14.752V14.878C49.076 18.322 47.816 21.15 43.812 23.124L44.442 24.02C48.978 21.766 50.21 18.406 50.21 14.752H49.076ZM44.498 14.752V15.69H49.762V14.752H44.498ZM48.894 17.888L43.868 18.224L44.05 19.26L48.894 18.784V17.888ZM52.254 13.422V26.092H53.43V13.422H52.254ZM53.108 18.56V19.526H55.446V18.56H53.108ZM61.9549 14.752V14.878C61.9549 18.322 60.6949 21.15 56.6909 23.124L57.3209 24.02C61.8569 21.766 63.0889 18.406 63.0889 14.752H61.9549ZM57.3769 14.752V15.69H62.6409V14.752H57.3769ZM61.7729 17.888L56.7469 18.224L56.9289 19.26L61.7729 18.784V17.888ZM65.1329 13.422V26.092H66.3089V13.422H65.1329ZM65.9869 18.56V19.526H68.3249V18.56H65.9869ZM74.5818 20.59V23.74H75.7438V20.59H74.5818ZM75.1698 14.262C72.4958 14.262 70.5638 15.564 70.5638 17.58C70.5638 19.596 72.4958 20.898 75.1698 20.898C77.8438 20.898 79.7618 19.596 79.7618 17.58C79.7618 15.564 77.8438 14.262 75.1698 14.262ZM75.1698 15.186C77.1718 15.186 78.6418 16.138 78.6418 17.58C78.6418 19.022 77.1718 19.974 75.1698 19.974C73.1538 19.974 71.6838 19.022 71.6838 17.58C71.6838 16.138 73.1538 15.186 75.1698 15.186ZM69.4578 23.516V24.482H80.9238V23.516H69.4578ZM82.3367 23.572V24.538H93.8027V23.572H82.3367ZM87.4607 20.856V23.978H88.6227V20.856H87.4607ZM83.7227 14.374V15.312H91.2407V17.272H83.7647V20.744H84.9127V18.21H92.3887V14.374H83.7227ZM83.7647 20.254V21.206H92.6827V20.254H83.7647ZM102.034 14.528V16.796C102.034 19.19 100.508 21.612 98.632 22.508L99.346 23.46C101.418 22.41 102.986 19.708 102.986 16.796V14.528H102.034ZM102.23 14.528V16.796C102.23 19.61 103.812 22.214 105.87 23.222L106.57 22.298C104.694 21.43 103.182 19.106 103.182 16.796V14.528H102.23ZM107.886 13.422V26.106H109.048V13.422H107.886ZM114.689 14.738V15.76C114.689 17.566 113.429 19.19 111.511 19.862L112.127 20.772C114.241 20.016 115.641 18.084 115.641 15.76V14.738H114.689ZM114.899 14.738V15.746C114.899 17.93 116.243 19.792 118.329 20.52L118.931 19.61C117.069 18.98 115.851 17.426 115.851 15.746V14.738H114.899ZM111.875 14.318V15.27H118.637V14.318H111.875ZM120.233 13.436V21.052H121.395V13.436H120.233ZM121.073 16.768V17.734H123.271V16.768H121.073ZM113.177 21.724V22.69H120.233V26.092H121.395V21.724H113.177ZM133.028 13.436V26.092H134.19V13.436H133.028ZM133.91 18.63V19.61H136.262V18.63H133.91ZM124.39 15.452V16.404H131.852V15.452H124.39ZM128.17 17.454C126.392 17.454 125.09 18.658 125.09 20.366C125.09 22.074 126.392 23.278 128.17 23.278C129.962 23.278 131.25 22.074 131.25 20.366C131.25 18.658 129.962 17.454 128.17 17.454ZM128.17 18.42C129.318 18.42 130.144 19.218 130.144 20.366C130.144 21.5 129.318 22.312 128.17 22.312C127.022 22.312 126.196 21.5 126.196 20.366C126.196 19.218 127.022 18.42 128.17 18.42ZM127.568 13.59V15.886H128.73V13.59H127.568ZM146.551 13.436V26.092H147.713V13.436H146.551ZM142.841 14.794V14.99C142.841 18.35 141.147 21.038 137.493 22.802L138.109 23.74C142.337 21.668 143.989 18.462 143.989 14.794H142.841ZM138.067 14.794V15.746H143.345V14.794H138.067Z" fill="black"/>
</svg>
