<svg width="current" height="current" viewBox="0 0 643 74" fill="none" xmlns="http://www.w3.org/2000/svg">
<rect y="35" width="401" height="39" fill="#C78EC0"/>
<path d="M169.782 18.63C169.152 20.01 169.572 21.51 170.892 22.08C172.512 22.77 174.492 22.08 175.302 20.49C176.472 18.24 177.132 14.7 177.132 9.84V6.3C177.132 3.36 176.052 2.01 172.512 2.01H154.182C152.352 2.01 151.542 3.39 151.542 4.59C151.542 5.82 152.382 7.17 154.182 7.17H170.472C170.952 7.17 171.222 7.5 171.222 7.92V9.81C171.222 13.86 170.712 16.59 169.782 18.63ZM153.132 23.61C151.272 23.61 150.552 24.93 150.552 26.16C150.552 27.42 151.302 28.68 153.132 28.68H176.052C177.882 28.68 178.632 27.42 178.632 26.16C178.632 24.93 177.912 23.61 176.052 23.61H153.132ZM202.962 29.28H208.302V3.66C208.302 2.01 206.982 1.11 205.632 1.11C204.252 1.11 202.962 1.98 202.962 3.66V11.97H201.462V3.66C201.462 2.01 200.202 1.11 198.852 1.11C197.472 1.11 196.242 1.98 196.242 3.66V29.28H201.462V16.89H202.962V29.28ZM186.942 18.51C186.942 17.46 187.242 17.25 188.292 17.25H194.232V6.27C194.232 3.21 193.662 2.16 189.522 2.16H183.792C181.962 2.16 181.242 3.45 181.242 4.65C181.242 5.88 181.992 7.11 183.792 7.11H187.752C188.292 7.11 188.562 7.41 188.562 7.95V12.36H185.862C182.112 12.36 181.212 13.35 181.212 16.92V23.4C181.212 26.97 182.112 28.02 185.862 28.02H193.062C194.802 28.02 195.492 26.73 195.492 25.5C195.492 24.3 194.832 23.1 193.062 23.1H188.292C187.242 23.1 186.942 22.89 186.942 21.84V18.51ZM213.762 13.98C211.932 13.98 211.242 15.18 211.242 16.38C211.242 17.61 211.962 18.78 213.762 18.78H235.422C237.222 18.78 237.942 17.61 237.942 16.38C237.942 15.18 237.252 13.98 235.422 13.98H233.382V11.31C233.382 9.21 232.152 8.25 230.352 8.25C228.522 8.25 227.262 9.18 227.262 11.31V13.98H221.922V11.31C221.922 9.21 220.692 8.25 218.892 8.25C217.062 8.25 215.802 9.18 215.802 11.31V13.98H213.762ZM213.132 23.61C211.272 23.61 210.552 24.93 210.552 26.16C210.552 27.42 211.302 28.68 213.132 28.68H236.052C237.882 28.68 238.632 27.42 238.632 26.16C238.632 24.93 237.912 23.61 236.052 23.61H213.132ZM214.122 2.1C212.292 2.1 211.602 3.42 211.602 4.62C211.602 5.85 212.322 7.14 214.122 7.14H235.062C236.862 7.14 237.582 5.85 237.582 4.62C237.582 3.42 236.892 2.1 235.062 2.1H214.122ZM243.072 23.82C241.242 23.82 240.552 25.05 240.552 26.25C240.552 27.48 241.272 28.68 243.072 28.68H266.112C267.912 28.68 268.632 27.48 268.632 26.25C268.632 25.05 267.942 23.82 266.112 23.82H257.652V19.59H265.332C266.982 19.59 267.642 18.42 267.642 17.28C267.642 16.17 267.012 14.94 265.332 14.94H249.072C248.382 14.94 248.052 14.67 248.052 14.1V13.95C248.052 13.38 248.382 13.11 249.072 13.11H266.952V6.75C266.952 3.9 265.782 2.01 261.642 2.01H244.272C242.832 2.01 241.962 3.21 241.962 4.41C241.962 5.64 242.832 6.81 244.272 6.81H259.962C260.652 6.81 260.772 7.26 260.772 7.65V8.55H247.602C243.642 8.55 241.632 10.59 241.632 13.8V14.37C241.632 17.58 243.642 19.59 247.602 19.59H251.532V23.82H243.072ZM281.48 23.82C279.65 23.82 278.96 25.05 278.96 26.25C278.96 27.48 279.68 28.68 281.48 28.68H304.52C306.32 28.68 307.04 27.48 307.04 26.25C307.04 25.05 306.35 23.82 304.52 23.82H296.06V18.57H305.48V4.32C305.48 2.4 303.95 1.65 302.42 1.65C300.83 1.65 299.36 2.37 299.36 4.32V5.52H286.61V4.38C286.61 2.49 285.05 1.65 283.55 1.65C281.96 1.65 280.46 2.37 280.46 4.32V13.95C280.46 17.43 281.18 18.57 284.81 18.57H289.94V23.82H281.48ZM287.54 13.74C286.82 13.74 286.61 13.44 286.61 12.84V10.17H299.36V13.74H287.54ZM314.75 29.28H333.59C335.39 29.28 336.11 28.17 336.11 26.94C336.11 25.74 335.42 24.63 333.59 24.63H317.42C316.76 24.63 316.61 24.54 316.61 23.88V22.8C316.61 20.79 315.26 19.89 313.58 19.89C311.9 19.89 310.46 20.76 310.46 22.8V24.93C310.46 28.17 311.36 29.28 314.75 29.28ZM333.41 11.91C335.21 11.91 335.93 10.8 335.93 9.57C335.93 8.37 335.24 7.26 333.41 7.26H317.12C316.46 7.26 316.31 7.17 316.31 6.51V4.29C316.31 2.28 314.96 1.38 313.28 1.38C311.6 1.38 310.19 2.25 310.19 4.29V7.56C310.19 10.8 311.09 11.91 314.48 11.91H333.41ZM311.48 13.71C309.65 13.71 308.96 15 308.96 16.2C308.96 17.43 309.68 18.66 311.48 18.66H334.52C336.32 18.66 337.04 17.43 337.04 16.2C337.04 15 336.35 13.71 334.52 13.71H311.48ZM374.638 29.28V4.08C374.638 2.13 373.228 1.11 371.638 1.11C370.048 1.11 368.638 2.13 368.638 4.08V29.28H374.638ZM350.098 23.1C348.598 23.25 347.848 24.24 347.788 25.5C347.698 27.3 349.198 28.11 350.668 28.08C358.318 27.93 364.408 23.76 364.408 13.08V6.63C364.408 3.84 363.088 2.25 359.698 2.25H350.818C348.988 2.25 348.148 3.63 348.148 4.86C348.148 6.12 349.018 7.44 350.818 7.44H357.658C358.138 7.44 358.408 7.77 358.408 8.19V13.05C358.408 20.43 355.168 22.62 350.098 23.1ZM381.718 1.14C380.128 1.14 378.628 1.89 378.628 3.84V8.64C378.628 12.12 379.288 13.23 382.918 13.23H404.188V3.84C404.188 1.92 402.658 1.14 401.128 1.14C399.688 1.14 398.398 1.74 398.158 3.3H384.628C384.328 1.83 383.038 1.14 381.718 1.14ZM388.648 23.04H394.678V19.32H403.108C404.788 19.32 405.448 18.15 405.448 17.01C405.448 15.9 404.818 14.64 403.108 14.64H379.708C377.998 14.64 377.368 15.9 377.368 17.01C377.368 18.15 378.028 19.32 379.708 19.32H388.648V23.04ZM383.158 29.28H401.998C403.798 29.28 404.518 28.2 404.518 26.97C404.518 25.77 403.828 24.69 401.998 24.69H385.678C385.108 24.69 385.018 24.6 385.018 24.09V23.22C385.018 21.21 383.668 20.4 381.988 20.4C380.308 20.4 378.868 21.18 378.868 23.22V24.93C378.868 28.17 379.768 29.28 383.158 29.28ZM385.618 9.15C384.898 9.15 384.688 8.82 384.688 8.22V7.17H398.128V9.15H385.618ZM409.528 14.46C407.938 14.46 407.368 15.51 407.368 16.53C407.368 17.61 407.968 18.6 409.528 18.6H433.288C434.848 18.6 435.448 17.61 435.448 16.53C435.448 15.51 434.878 14.46 433.288 14.46H424.438V13.2H432.868C434.008 13.2 434.488 12.36 434.488 11.52C434.488 10.8 434.038 9.9 432.868 9.9H415.168C414.748 9.9 414.598 9.81 414.598 9.39V8.88H432.328C433.528 8.88 433.978 8.13 433.978 7.35C433.978 6.57 433.528 5.82 432.328 5.82H414.598V5.31C414.598 4.92 414.748 4.8 415.168 4.8H432.508C433.648 4.8 434.158 3.93 434.158 3.12C434.158 2.34 433.678 1.44 432.508 1.44H411.988C409.528 1.44 408.628 2.43 408.628 4.74V9.93C408.628 12.21 409.528 13.2 411.988 13.2H418.378V14.46H409.528ZM413.668 19.59C409.888 19.59 408.208 21.63 408.208 24.48C408.208 27.33 409.888 29.37 413.668 29.37H429.148C432.928 29.37 434.608 27.33 434.608 24.48C434.608 21.63 432.928 19.59 429.148 19.59H413.668ZM415.558 25.41C414.568 25.41 414.298 25.02 414.298 24.48C414.298 23.94 414.568 23.55 415.558 23.55H427.258C428.248 23.55 428.518 23.94 428.518 24.48C428.518 25.02 428.248 25.41 427.258 25.41H415.558ZM439.588 23.4C437.968 23.64 437.248 24.66 437.308 26.07C437.368 27.72 438.808 28.47 440.398 28.35C444.418 28.05 448.018 26.34 449.728 21.84C450.118 22.08 450.598 22.2 451.198 22.2H453.178V29.28H458.368V3.66C458.368 2.01 457.078 1.11 455.728 1.11C454.348 1.11 453.178 1.98 453.178 3.66V7.5H450.808V6.33C450.808 3.27 449.728 2.25 446.338 2.25H440.128C438.298 2.25 437.608 3.57 437.608 4.77C437.608 6 438.328 7.29 440.128 7.29H444.598C445.108 7.29 445.348 7.47 445.348 8.04V15.06C445.348 21.3 443.068 22.89 439.588 23.4ZM459.838 29.28H465.118V3.66C465.118 2.01 463.828 1.11 462.478 1.11C461.098 1.11 459.838 1.98 459.838 3.66V29.28ZM450.808 15.12V12.48H453.178V17.22H451.198C451.018 17.22 450.868 17.25 450.718 17.25C450.778 16.59 450.808 15.87 450.808 15.12ZM469.888 23.88C468.058 23.88 467.368 25.08 467.368 26.28C467.368 27.51 468.088 28.68 469.888 28.68H492.928C494.728 28.68 495.448 27.51 495.448 26.28C495.448 25.08 494.758 23.88 492.928 23.88H490.228V22.02C490.228 19.92 489.028 18.96 487.228 18.96C485.398 18.96 484.168 19.89 484.168 22.02V23.88H478.648V22.02C478.648 19.92 477.448 18.96 475.648 18.96C473.818 18.96 472.588 19.89 472.588 22.02V23.88H469.888ZM470.578 13.35C468.748 13.35 468.058 14.55 468.058 15.75C468.058 16.98 468.778 18.15 470.578 18.15H492.238C494.038 18.15 494.758 16.98 494.758 15.75C494.758 14.55 494.068 13.35 492.238 13.35H490.168V11.28C490.168 9.18 488.968 8.22 487.168 8.22C485.338 8.22 484.108 9.15 484.108 11.28V13.35H478.708V11.28C478.708 9.18 477.508 8.22 475.708 8.22C473.878 8.22 472.648 9.15 472.648 11.28V13.35H470.578ZM470.938 2.1C469.108 2.1 468.418 3.42 468.418 4.62C468.418 5.85 469.138 7.14 470.938 7.14H491.878C493.678 7.14 494.398 5.85 494.398 4.62C494.398 3.42 493.708 2.1 491.878 2.1H470.938Z" fill="#A18585"/>
<path d="M19.7218 67.28H25.0918V55.04H26.6818V67.28H32.0518V41.66C32.0518 40.01 30.7018 39.11 29.3518 39.11C27.9718 39.11 26.6818 39.98 26.6818 41.66V50.12H25.0918V41.66C25.0918 40.01 23.7418 39.11 22.3918 39.11C21.0118 39.11 19.7218 39.98 19.7218 41.66V67.28ZM16.0618 65.93C17.9818 65.93 18.6118 64.73 18.6118 63.44C18.6118 62.15 18.0118 60.92 16.0618 60.92H11.5918C10.9018 60.92 10.7518 60.83 10.7518 60.14V43.04C10.7518 41.03 9.6118 40.13 7.9318 40.13C6.2518 40.13 5.0218 41 5.0218 43.04V61.43C5.0218 64.88 5.8018 65.93 9.4318 65.93H16.0618ZM69.35 67.28V60.26C69.35 56.78 68.69 55.7 65.06 55.7H49.01C45.38 55.7 44.72 56.78 44.72 60.26V62.72C44.72 66.2 45.38 67.28 49.01 67.28H69.35ZM46.1 49.88C44.66 49.82 43.58 50.54 43.46 51.95C43.34 53.54 44.42 54.62 45.77 54.74C53.3 55.46 59.93 52.7 59.93 45.47V44.03C59.93 41.33 58.82 39.98 55.55 39.98H46.43C44.66 39.98 43.97 41.15 43.97 42.32C43.97 43.49 44.69 44.66 46.43 44.66H53.33C53.78 44.66 54.02 44.84 54.02 45.32V45.62C54.02 49.04 50.57 50.09 46.1 49.88ZM63.23 54.62H69.17V49.46H70.1C71.9 49.46 72.47 48.11 72.47 46.88C72.47 45.68 71.93 44.3 70.1 44.3H69.17V42.08C69.17 40.16 67.76 39.11 66.2 39.11C64.61 39.11 63.23 40.13 63.23 42.08V54.62ZM50.63 62.24V60.68C50.63 60.02 50.75 59.9 51.35 59.9H62.69C63.29 59.9 63.44 60.02 63.44 60.68V63.05H51.35C50.75 63.05 50.63 62.96 50.63 62.24ZM94.13 67.37C98.24 67.37 100.28 65 100.28 61.7C100.28 58.43 98.24 55.97 94.13 55.97H80.69C76.52 55.97 74.54 58.49 74.54 61.7C74.54 64.94 76.52 67.37 80.69 67.37H94.13ZM88.73 44.87C90.14 44.87 90.92 43.55 90.92 42.47C90.92 41.39 90.26 40.04 88.73 40.04H75.32C73.79 40.04 73.13 41.39 73.13 42.47C73.13 43.55 73.91 44.87 75.32 44.87H78.95V45.44C78.95 47.96 77.45 49.85 74.75 50.3C73.55 50.51 72.86 51.38 72.92 52.79C72.98 54.14 74.21 55.04 75.68 54.98C78.44 54.89 81.2 53.6 82.91 51.2C84.62 51.17 85.67 52.46 85.52 54.71H91.1C91.19 49.55 89.06 47.15 84.56 46.94C84.62 46.46 84.65 45.95 84.65 45.44V44.87H88.73ZM94.01 54.92H99.98V42.02C99.98 40.13 98.51 39.11 96.98 39.11C95.42 39.11 94.01 40.1 94.01 42.02V44.63H92.3C90.47 44.63 89.9 45.86 89.9 47.06C89.9 48.29 90.5 49.49 92.3 49.49H94.01V54.92ZM82.28 63.2C80.96 63.2 80.63 62.36 80.63 61.7C80.63 61.04 80.96 60.26 82.28 60.26H92.54C93.86 60.26 94.19 61.04 94.19 61.7C94.19 62.36 93.86 63.2 92.54 63.2H82.28ZM129.83 44.24C129.83 41.54 128.12 39.41 124.37 39.41H109.13C105.38 39.41 103.67 41.54 103.67 44.24C103.67 46.94 105.38 49.07 109.13 49.07H124.37C128.12 49.07 129.83 46.94 129.83 44.24ZM123.68 44.24C123.68 44.78 123.38 45.17 122.48 45.17H111.02C110.12 45.17 109.82 44.78 109.82 44.24C109.82 43.7 110.12 43.31 111.02 43.31H122.48C123.38 43.31 123.68 43.7 123.68 44.24ZM128.78 67.28C129.98 67.28 130.4 66.32 130.4 65.6C130.4 64.76 129.95 63.92 128.78 63.92H110.57C110.12 63.92 110 63.71 110 63.38C110 63.08 110.12 62.87 110.57 62.87H129.56V58.19C129.56 56.36 128.75 55.4 126.2 55.4H105.56C104.36 55.4 103.85 56.3 103.85 57.08C103.85 57.86 104.45 58.73 105.56 58.73H122.75C123.2 58.73 123.38 58.94 123.38 59.21V59.78H107.33C104.72 59.78 103.55 61.25 103.55 63.35V63.44C103.55 65.48 104.75 67.28 107.33 67.28H128.78ZM104.87 50.15C103.28 50.15 102.71 51.17 102.71 52.19C102.71 53.27 103.31 54.23 104.87 54.23H128.63C130.19 54.23 130.79 53.27 130.79 52.19C130.79 51.17 130.22 50.15 128.63 50.15H104.87ZM143.758 61.1C142.258 61.28 141.538 62.24 141.538 63.5C141.538 65.27 142.948 66.14 144.418 66.08C152.188 65.69 157.948 61.85 157.948 51.23V44.63C157.948 41.84 156.628 40.25 153.238 40.25H144.418C142.588 40.25 141.898 41.63 141.898 42.83C141.898 44.06 142.618 45.44 144.418 45.44H151.258C151.738 45.44 152.008 45.77 152.008 46.19V51.2C152.008 58.58 148.468 60.5 143.758 61.1ZM161.578 67.28H167.518V54.83H168.508C170.308 54.83 170.878 53.45 170.878 52.22C170.878 51.02 170.338 49.61 168.508 49.61H167.518V42.02C167.518 40.13 166.078 39.11 164.548 39.11C162.988 39.11 161.578 40.1 161.578 42.02V67.28ZM191.908 67.37C196.018 67.37 198.058 65 198.058 61.7C198.058 58.43 196.018 55.97 191.908 55.97H179.098C174.928 55.97 172.948 58.49 172.948 61.7C172.948 64.94 174.928 67.37 179.098 67.37H191.908ZM187.438 44.87C188.848 44.87 189.628 43.55 189.628 42.47C189.628 41.39 188.968 40.04 187.438 40.04H173.728C172.198 40.04 171.538 41.39 171.538 42.47C171.538 43.55 172.318 44.87 173.728 44.87H177.478V45.44C177.478 47.96 175.888 49.85 173.158 50.3C171.958 50.51 171.268 51.38 171.328 52.79C171.388 54.14 172.618 55.04 174.088 54.98C176.878 54.89 179.728 53.57 181.468 51.14C183.268 51.02 184.408 52.34 184.228 54.68H189.838C189.928 49.4 187.738 47 183.118 46.85C183.178 46.4 183.208 45.92 183.208 45.44V44.87H187.438ZM191.638 55.07H197.578V49.58H198.508C200.308 49.58 200.878 48.23 200.878 47C200.878 45.8 200.338 44.42 198.508 44.42H197.578V42.08C197.578 40.16 196.168 39.11 194.608 39.11C193.018 39.11 191.638 40.13 191.638 42.08V55.07ZM180.688 63.2C179.368 63.2 179.038 62.36 179.038 61.7C179.038 61.04 179.368 60.26 180.688 60.26H190.318C191.638 60.26 191.968 61.04 191.968 61.7C191.968 62.36 191.638 63.2 190.318 63.2H180.688ZM227.076 53.81V44.48C227.076 41 226.416 39.92 222.786 39.92H214.686C211.056 39.92 210.396 41 210.396 44.48V49.25C210.396 52.73 211.056 53.81 214.686 53.81H227.076ZM232.836 56.96C232.836 55.22 231.696 54.5 230.166 54.5C228.636 54.5 227.496 55.22 227.496 56.96V56.99H224.706C223.236 56.99 222.516 57.8 222.516 59.03C222.516 59.9 222.936 60.56 223.716 60.86C223.446 61.37 223.326 61.91 223.326 62.45C223.326 65.24 225.096 67.43 228.726 67.43H231.606C235.236 67.43 237.036 65.24 237.036 62.45C237.036 61.91 236.886 61.34 236.616 60.83C237.366 60.53 237.786 59.87 237.786 59.03C237.786 57.8 237.066 56.99 235.596 56.99H232.836V56.96ZM230.046 54.02H235.986V49.13H236.916C238.716 49.13 239.286 47.78 239.286 46.55C239.286 45.35 238.746 43.97 236.916 43.97H235.986V42.08C235.986 40.16 234.576 39.11 233.016 39.11C231.426 39.11 230.046 40.13 230.046 42.08V54.02ZM220.836 67.22C222.636 67.22 223.206 66.14 223.206 64.91C223.206 63.71 222.666 62.6 220.836 62.6H218.496C217.836 62.6 217.686 62.51 217.686 61.85V58.55C217.686 56.54 216.486 55.67 214.806 55.67C213.126 55.67 211.866 56.51 211.866 58.55V63.14C211.866 66.26 212.706 67.22 215.976 67.22H220.836ZM216.066 48.65V45.05C216.066 44.48 216.186 44.3 216.786 44.3H220.656C221.256 44.3 221.406 44.48 221.406 45.05V49.43H216.786C216.186 49.43 216.066 49.28 216.066 48.65ZM230.856 60.77C231.816 60.77 232.326 61.46 232.326 62.36C232.326 63.23 231.816 63.98 230.856 63.98H229.506C228.546 63.98 228.036 63.23 228.036 62.36C228.036 61.46 228.546 60.77 229.506 60.77H230.856ZM240.306 58.58C240.306 63.89 243.846 66.71 248.856 66.71C253.836 66.71 257.376 63.89 257.376 58.58V47.72C257.376 42.41 253.836 39.59 248.826 39.59C243.816 39.59 240.306 42.44 240.306 47.72V58.58ZM246.246 47.6C246.246 45.62 247.356 44.57 248.826 44.54C250.296 44.51 251.436 45.59 251.436 47.6V58.7C251.436 60.74 250.296 61.76 248.826 61.76C247.356 61.76 246.246 60.74 246.246 58.7V47.6ZM266.796 67.28V42.08C266.796 40.13 265.386 39.11 263.796 39.11C262.206 39.11 260.796 40.13 260.796 42.08V67.28H266.796ZM286.935 38.99C284.925 38.99 283.875 40.07 283.875 41.96V42.32H280.095C278.265 42.32 277.575 43.67 277.575 44.87C277.575 46.1 278.295 47.39 280.095 47.39H284.115V49.07C284.115 55.73 282.255 59.09 278.535 61.28C277.335 62 277.065 63.41 277.635 64.49C278.265 65.69 280.005 66.11 281.295 65.57C284.325 64.31 286.815 61.88 288.315 58.25C290.145 59.42 290.985 61.7 290.535 65.6H296.085C296.535 57.59 293.895 54.5 289.635 53.12C289.785 51.89 289.875 50.6 289.875 49.22V47.39H293.715C295.515 47.39 296.175 46.1 296.175 44.87C296.175 43.67 295.545 42.32 293.715 42.32H289.995V41.96C289.995 40.07 288.945 38.99 286.935 38.99ZM298.395 67.28H304.335V54.83H305.325C307.125 54.83 307.695 53.45 307.695 52.22C307.695 51.02 307.155 49.61 305.325 49.61H304.335V42.02C304.335 40.13 302.895 39.11 301.365 39.11C299.805 39.11 298.395 40.1 298.395 42.02V67.28ZM314.085 48.47C314.085 55.16 312.345 58.85 308.535 61.22C307.335 61.97 307.065 63.38 307.635 64.49C308.235 65.66 310.065 66.08 311.355 65.54C314.475 64.22 316.935 61.61 318.405 57.8C320.265 59.09 321.135 61.58 320.745 65.6H326.385C326.715 57.35 324.045 53.99 319.695 52.49C319.845 51.29 319.935 50 319.935 48.62V45.38H323.955C325.755 45.38 326.445 44.06 326.445 42.83C326.445 41.63 325.785 40.25 323.955 40.25H310.065C308.235 40.25 307.515 41.63 307.515 42.83C307.515 44.06 308.265 45.38 310.065 45.38H314.085V48.47ZM335.205 67.28V42.08C335.205 40.13 333.795 39.11 332.205 39.11C330.615 39.11 329.205 40.13 329.205 42.08V67.28H335.205ZM347.025 39.02C345.135 39.02 343.935 40.13 343.935 42.05V42.32H339.765C338.295 42.32 337.545 43.4 337.545 44.66C337.545 45.92 338.355 47 339.795 47C339.465 47.78 339.285 48.65 339.285 49.67V59C339.285 64.28 342.645 66.71 347.025 66.71C351.435 66.71 354.795 64.28 354.795 59V49.67C354.795 48.65 354.585 47.78 354.255 47H354.315C355.755 47 356.565 45.92 356.565 44.66C356.565 43.4 355.785 42.32 354.315 42.32H350.115V42.05C350.115 40.13 348.915 39.02 347.025 39.02ZM358.395 67.28H364.335V54.83H365.325C367.125 54.83 367.695 53.45 367.695 52.22C367.695 51.02 367.155 49.61 365.325 49.61H364.335V42.02C364.335 40.13 362.895 39.11 361.365 39.11C359.805 39.11 358.395 40.1 358.395 42.02V67.28ZM347.025 61.85C345.885 61.85 344.865 60.98 344.865 59.06V49.43C344.865 47.48 345.855 46.76 347.025 46.76C348.225 46.76 349.215 47.48 349.215 49.43V59.06C349.215 60.98 348.195 61.85 347.025 61.85ZM373.725 67.28H392.565C394.365 67.28 395.085 66.17 395.085 64.94C395.085 63.74 394.395 62.63 392.565 62.63H376.395C375.735 62.63 375.585 62.54 375.585 61.88V60.8C375.585 58.79 374.235 57.89 372.555 57.89C370.875 57.89 369.435 58.76 369.435 60.8V62.93C369.435 66.17 370.335 67.28 373.725 67.28ZM392.385 49.91C394.185 49.91 394.905 48.8 394.905 47.57C394.905 46.37 394.215 45.26 392.385 45.26H376.095C375.435 45.26 375.285 45.17 375.285 44.51V42.29C375.285 40.28 373.935 39.38 372.255 39.38C370.575 39.38 369.165 40.25 369.165 42.29V45.56C369.165 48.8 370.065 49.91 373.455 49.91H392.385ZM370.455 51.71C368.625 51.71 367.935 53 367.935 54.2C367.935 55.43 368.655 56.66 370.455 56.66H393.495C395.295 56.66 396.015 55.43 396.015 54.2C396.015 53 395.325 51.71 393.495 51.71H370.455Z" fill="white"/>
<path d="M615.421 51.02C619.831 51.02 621.961 48.68 621.961 45.26C621.961 41.84 619.831 39.41 615.421 39.41H602.281C597.871 39.41 595.741 41.84 595.741 45.26C595.741 48.68 597.871 51.02 602.281 51.02H615.421ZM603.781 46.64C602.341 46.64 601.891 46.07 601.891 45.26C601.891 44.42 602.341 43.91 603.781 43.91H613.921C615.361 43.91 615.811 44.42 615.811 45.26C615.811 46.07 615.361 46.64 613.921 46.64H603.781ZM600.541 67.28H619.381C621.181 67.28 621.901 66.17 621.901 64.94C621.901 63.74 621.211 62.63 619.381 62.63H603.211C602.551 62.63 602.401 62.54 602.401 61.88V61.22C602.401 59.21 601.051 58.43 599.371 58.43C597.691 58.43 596.251 59.18 596.251 61.22V62.93C596.251 66.17 597.151 67.28 600.541 67.28ZM597.271 52.64C595.441 52.64 594.751 53.87 594.751 55.04C594.751 56.24 595.471 57.41 597.271 57.41H620.311C622.111 57.41 622.831 56.24 622.831 55.04C622.831 53.87 622.141 52.64 620.311 52.64H597.271ZM629.491 62.6C629.491 64.46 630.691 65.63 632.701 65.63C634.711 65.63 635.911 64.43 635.911 62.6C635.911 60.77 634.711 59.57 632.701 59.57C630.691 59.57 629.491 60.74 629.491 62.6ZM635.731 58.16V56.81C635.731 56.03 635.881 55.43 636.721 54.86C638.191 53.9 639.631 52.85 640.531 51.8C641.611 50.54 642.061 49.1 642.061 47.09C642.061 41.96 638.461 39.53 633.481 39.53C628.681 39.53 624.751 42.35 624.631 46.01C624.571 47.87 625.801 48.8 627.181 48.89C628.831 49.01 630.091 48.2 630.511 46.76C630.871 45.53 632.101 44.84 633.481 44.84C634.831 44.84 635.941 45.71 635.941 47.09C635.941 48.11 635.701 48.77 634.741 49.64C634.111 50.21 633.031 50.84 631.711 51.62C630.031 52.61 629.671 54.02 629.671 56.33V58.16H635.731Z" fill="#B09A9A"/>
<path d="M432.983 67.28V60.26C432.983 56.78 432.323 55.7 428.693 55.7H412.643C409.013 55.7 408.353 56.78 408.353 60.26V62.72C408.353 66.2 409.013 67.28 412.643 67.28H432.983ZM409.733 49.88C408.293 49.82 407.213 50.54 407.093 51.95C406.973 53.54 408.053 54.62 409.403 54.74C416.933 55.46 423.563 52.7 423.563 45.47V44.03C423.563 41.33 422.453 39.98 419.183 39.98H410.063C408.293 39.98 407.603 41.15 407.603 42.32C407.603 43.49 408.323 44.66 410.063 44.66H416.963C417.413 44.66 417.653 44.84 417.653 45.32V45.62C417.653 49.04 414.203 50.09 409.733 49.88ZM426.863 54.62H432.803V49.46H433.733C435.533 49.46 436.103 48.11 436.103 46.88C436.103 45.68 435.563 44.3 433.733 44.3H432.803V42.08C432.803 40.16 431.393 39.11 429.833 39.11C428.243 39.11 426.863 40.13 426.863 42.08V54.62ZM414.263 62.24V60.68C414.263 60.02 414.383 59.9 414.983 59.9H426.323C426.923 59.9 427.073 60.02 427.073 60.68V63.05H414.983C414.383 63.05 414.263 62.96 414.263 62.24Z" fill="#F89790"/>
<path d="M457.763 67.37C461.873 67.37 463.913 65 463.913 61.7C463.913 58.43 461.873 55.97 457.763 55.97H444.323C440.153 55.97 438.173 58.49 438.173 61.7C438.173 64.94 440.153 67.37 444.323 67.37H457.763ZM452.363 44.87C453.773 44.87 454.553 43.55 454.553 42.47C454.553 41.39 453.893 40.04 452.363 40.04H438.953C437.423 40.04 436.763 41.39 436.763 42.47C436.763 43.55 437.543 44.87 438.953 44.87H442.583V45.44C442.583 47.96 441.083 49.85 438.383 50.3C437.183 50.51 436.493 51.38 436.553 52.79C436.613 54.14 437.843 55.04 439.313 54.98C442.073 54.89 444.833 53.6 446.543 51.2C448.253 51.17 449.303 52.46 449.153 54.71H454.733C454.823 49.55 452.693 47.15 448.193 46.94C448.253 46.46 448.283 45.95 448.283 45.44V44.87H452.363ZM457.643 54.92H463.613V42.02C463.613 40.13 462.143 39.11 460.613 39.11C459.053 39.11 457.643 40.1 457.643 42.02V44.63H455.933C454.103 44.63 453.533 45.86 453.533 47.06C453.533 48.29 454.133 49.49 455.933 49.49H457.643V54.92ZM445.913 63.2C444.593 63.2 444.263 62.36 444.263 61.7C444.263 61.04 444.593 60.26 445.913 60.26H456.173C457.493 60.26 457.823 61.04 457.823 61.7C457.823 62.36 457.493 63.2 456.173 63.2H445.913ZM584.851 44C585.331 44 585.541 44.12 585.541 44.6V45.8H568.051C566.251 45.8 565.591 46.85 565.591 47.99C565.591 49.25 566.281 50.21 568.051 50.21H573.901V52.88H567.091C565.381 52.88 564.751 54.14 564.751 55.25C564.751 56.39 565.411 57.59 567.091 57.59H590.491C592.171 57.59 592.831 56.39 592.831 55.25C592.831 54.14 592.201 52.88 590.491 52.88H579.961V50.21H585.211C585.061 50.9 584.881 51.5 584.701 51.98H590.521C591.001 50.75 591.421 48.23 591.421 45.53V42.56C591.421 40.58 590.461 39.53 587.821 39.53H568.411C566.641 39.53 565.951 40.55 565.951 41.72C565.951 42.95 566.671 44 568.411 44H584.851ZM570.541 67.28H589.381C591.181 67.28 591.901 66.2 591.901 64.97C591.901 63.77 591.211 62.69 589.381 62.69H573.061C572.491 62.69 572.401 62.6 572.401 62.09V61.34C572.401 59.33 571.051 58.52 569.371 58.52C567.691 58.52 566.251 59.3 566.251 61.34V62.93C566.251 66.17 567.151 67.28 570.541 67.28Z" fill="#84C99D"/>
<path d="M475.531 58.58C475.531 63.89 479.071 66.71 484.081 66.71C489.061 66.71 492.601 63.89 492.601 58.58V47.72C492.601 42.41 489.061 39.59 484.051 39.59C479.041 39.59 475.531 42.44 475.531 47.72V58.58ZM481.471 47.6C481.471 45.62 482.581 44.57 484.051 44.54C485.521 44.51 486.661 45.59 486.661 47.6V58.7C486.661 60.74 485.521 61.76 484.051 61.76C482.581 61.76 481.471 60.74 481.471 58.7V47.6ZM502.021 67.28V42.08C502.021 40.13 500.611 39.11 499.021 39.11C497.431 39.11 496.021 40.13 496.021 42.08V67.28H502.021Z" fill="#72C7EE"/>
<path d="M507.271 61.82C505.441 61.82 504.751 63.05 504.751 64.25C504.751 65.48 505.471 66.68 507.271 66.68H530.311C532.111 66.68 532.831 65.48 532.831 64.25C532.831 63.05 532.141 61.82 530.311 61.82H521.851V56.18H531.301V44.57C531.301 41.09 530.641 40.01 527.011 40.01H510.571C506.941 40.01 506.281 41.09 506.281 44.57V51.65C506.281 55.13 506.941 56.18 510.571 56.18H515.731V61.82H507.271ZM512.281 50.54V45.65C512.281 45.11 512.401 44.75 513.001 44.75H524.551C525.151 44.75 525.301 45.11 525.301 45.65V51.47H513.211C512.491 51.47 512.281 51.14 512.281 50.54Z" fill="#8789C2"/>
<path d="M551.671 66.08C553.381 66.08 553.921 64.76 553.921 63.59C553.921 62.45 553.411 61.07 551.671 61.07H542.461C541.921 61.07 541.681 60.89 541.681 60.2V55.43H549.721C551.431 55.43 552.121 54.2 552.121 52.97C552.121 51.71 551.461 50.48 549.721 50.48H541.681V46.1C541.681 45.41 541.921 45.23 542.461 45.23H550.441C552.151 45.23 552.691 43.85 552.691 42.68C552.691 41.54 552.181 40.16 550.441 40.16H540.301C536.401 40.16 535.681 41.06 535.681 44.81V61.4C535.681 65.15 536.401 66.08 540.301 66.08H551.671ZM562.021 67.28V42.08C562.021 40.13 560.611 39.11 559.021 39.11C557.431 39.11 556.021 40.13 556.021 42.08V67.28H562.021Z" fill="#C78EC0"/>
</svg>
