<svg width="current" height="current" viewBox="0 0 113 63" fill="none" xmlns="http://www.w3.org/2000/svg">
<rect y="31" width="113" height="26" fill="#FDF9D2"/>
<path d="M9.5 43.25C10.4667 43.3167 11.45 43.35 12.45 43.35C13.45 43.35 14.3 43.35 15 43.35C15.7667 43.35 16.5333 43.35 17.3 43.35C18.1 43.3167 18.9833 43.2833 19.95 43.25C19.75 42.0167 19.6167 41.0667 19.55 40.4C19.4833 39.7 19.45 38.9333 19.45 38.1V36.2C18.5167 36.2667 17.45 36.3167 16.25 36.35C15.0833 36.35 14.0333 36.35 13.1 36.35C12 36.35 11.2 36.1667 10.7 35.8C10.2333 35.4333 10 34.7167 10 33.65C10 33.0833 10 32.3833 10 31.55C10 30.7167 10 29.9 10 29.1C10.0333 28.2667 10.05 27.5167 10.05 26.85C10.0833 26.15 10.1167 25.6667 10.15 25.4C10.2833 24.7333 10.55 24.2167 10.95 23.85C11.35 23.4833 11.95 23.2833 12.75 23.25C13.5167 23.25 14.4 23.2333 15.4 23.2C16.4333 23.1667 17.4833 23.15 18.55 23.15C19.25 23.15 19.85 23.15 20.35 23.15C20.8833 23.15 21.3667 23.1667 21.8 23.2C22.2667 23.2 22.7167 23.2167 23.15 23.25C23.5833 23.2833 24.0333 23.3167 24.5 23.35C25.1333 23.3833 25.5 23.3667 25.6 23.3C25.7333 23.2 25.8333 22.8667 25.9 22.3C25.9667 21.7667 26.0167 21.1 26.05 20.3C26.0833 19.5 26.1 18.8833 26.1 18.45C26.1 18.1167 25.8333 17.95 25.3 17.95H22.45C21.3833 17.95 20.4333 17.95 19.6 17.95C18.7667 17.9167 17.95 17.8833 17.15 17.85C16.35 17.8167 15.5 17.7667 14.6 17.7C13.7333 17.6 12.7167 17.4833 11.55 17.35C10.7833 17.2833 10.1833 17.0167 9.75 16.55C9.35 16.05 9.15 15.55 9.15 15.05C9.15 14.55 9.35 14.1333 9.75 13.8C10.15 13.4333 10.7333 13.3333 11.5 13.5C11.8 13.6 12.1 13.6667 12.4 13.7C12.7 13.7333 12.9833 13.7667 13.25 13.8C14.0833 13.9 14.8667 13.9833 15.6 14.05C16.3333 14.1167 17.05 14.1833 17.75 14.25C18.45 14.2833 19.15 14.3167 19.85 14.35C20.5833 14.35 21.3833 14.35 22.25 14.35C23.1167 14.35 23.9667 14.35 24.8 14.35C25.6333 14.3167 26.45 14.2833 27.25 14.25C28.1167 14.2167 28.75 14.3333 29.15 14.6C29.5833 14.8333 29.85 15.4 29.95 16.3C29.9833 16.5333 30 16.8 30 17.1C30 17.3667 30 17.65 30 17.95C30 18.8167 29.9667 19.8 29.9 20.9C29.8667 21.9667 29.8 22.85 29.7 23.55C29.6 24.2833 29.5167 24.9 29.45 25.4C29.3833 25.8667 29.2833 26.25 29.15 26.55C29.0167 26.8167 28.8333 27.0167 28.6 27.15C28.3667 27.25 28.0333 27.3 27.6 27.3C27.3333 27.3 27.05 27.3 26.75 27.3C26.4833 27.2667 26.15 27.2333 25.75 27.2C25.15 27.1333 24.6167 27.0833 24.15 27.05C23.6833 26.9833 23.2167 26.95 22.75 26.95C22.3167 26.9167 21.85 26.9 21.35 26.9C20.85 26.8667 20.3 26.85 19.7 26.85C18.6 26.85 17.6 26.8667 16.7 26.9C15.8333 26.9 14.9167 26.9333 13.95 27C13.8833 27.6667 13.8333 28.4333 13.8 29.3C13.8 30.1333 13.8 30.85 13.8 31.45C13.8 32.0167 13.8833 32.4 14.05 32.6C14.25 32.7667 14.5833 32.8167 15.05 32.75C15.8833 32.7167 16.6167 32.7 17.25 32.7C17.9167 32.6667 18.5333 32.65 19.1 32.65C19.6667 32.6167 20.2333 32.6 20.8 32.6C21.4 32.6 22.0667 32.6 22.8 32.6C23.8333 32.6 24.9333 32.6 26.1 32.6C27.2667 32.6 28.4167 32.6167 29.55 32.65C30.0833 32.65 30.75 32.6333 31.55 32.6C32.3833 32.5667 33.0833 32.6167 33.65 32.75C34.1833 32.8833 34.5833 33.1667 34.85 33.6C35.1167 34 35.2 34.45 35.1 34.95C34.9333 35.95 34.2167 36.45 32.95 36.45C32.3167 36.45 31.6333 36.4167 30.9 36.35C30.1667 36.25 29.5 36.1833 28.9 36.15C28.2333 36.0833 27.4167 36.0667 26.45 36.1C25.5167 36.1 24.5667 36.1 23.6 36.1V37.65C23.6 38.6167 23.6167 39.5333 23.65 40.4C23.6833 41.2333 23.8 42.15 24 43.15C25.2667 43.15 26.5667 43.1667 27.9 43.2C29.2333 43.2333 30.8 43.25 32.6 43.25C33.3 43.2167 33.8333 43.2 34.2 43.2C34.5667 43.2 34.9 43.2333 35.2 43.3C36.0333 43.4333 36.6 43.6667 36.9 44C37.2 44.3333 37.3333 44.7333 37.3 45.2C37.2333 45.7333 37 46.15 36.6 46.45C36.2333 46.75 35.7667 46.8833 35.2 46.85C34.5333 46.8167 33.9667 46.75 33.5 46.65C33.0333 46.5833 32.5 46.55 31.9 46.55C28.9333 46.55 26.3167 46.55 24.05 46.55C21.7833 46.55 19.7667 46.5333 18 46.5C16.2667 46.5 14.7167 46.5 13.35 46.5C11.9833 46.5 10.7 46.5 9.5 46.5C8 46.5 7.25 45.9 7.25 44.7C7.25 44.2333 7.46667 43.8667 7.9 43.6C8.33333 43.3 8.86667 43.1833 9.5 43.25ZM62.3262 35.15C62.1262 32.85 62.1595 30.6333 62.4262 28.5C62.7262 26.3667 63.0595 24.0667 63.4262 21.6C63.5595 20.7 63.6428 20.0167 63.6762 19.55C63.7428 19.05 63.7095 18.7 63.5762 18.5C63.4428 18.2667 63.1928 18.15 62.8262 18.15C62.4928 18.1167 62.0095 18.1167 61.3762 18.15C60.1762 18.1833 59.0762 18.2333 58.0762 18.3C57.0762 18.3333 56.1095 18.3667 55.1762 18.4C54.2762 18.4333 53.3762 18.45 52.4762 18.45C51.5762 18.45 50.6095 18.4333 49.5762 18.4C48.5428 18.3667 47.5095 18.3167 46.4762 18.25C45.4762 18.1833 44.5428 18.05 43.6762 17.85C42.9095 17.6833 42.3428 17.4167 41.9762 17.05C41.6095 16.65 41.5095 16.1167 41.6762 15.45C41.8428 14.85 42.1928 14.4833 42.7262 14.35C43.2595 14.2167 43.9095 14.25 44.6762 14.45C45.4095 14.6167 46.1428 14.7333 46.8762 14.8C47.6428 14.8667 48.5095 14.9167 49.4762 14.95C50.9762 14.9833 52.3262 14.9833 53.5262 14.95C54.7595 14.9167 55.9428 14.8667 57.0762 14.8C58.2428 14.7333 59.3928 14.6833 60.5262 14.65C61.6928 14.5833 62.9428 14.55 64.2762 14.55C65.1428 14.55 65.8428 14.6167 66.3762 14.75C66.9095 14.8833 67.2928 15.1333 67.5262 15.5C67.7928 15.8333 67.9428 16.3 67.9762 16.9C68.0095 17.5 67.9762 18.2667 67.8762 19.2C67.7428 20.4333 67.5762 21.5833 67.3762 22.65C67.1762 23.7167 66.9928 24.7667 66.8262 25.8C66.6595 26.8333 66.5262 27.8833 66.4262 28.95C66.3262 30.0167 66.3095 31.1667 66.3762 32.4C66.5095 32.7667 66.6262 33.15 66.7262 33.55C66.8262 33.95 66.8762 34.35 66.8762 34.75C66.8762 35.4167 66.6928 36.0167 66.3262 36.55C65.9928 37.05 65.4095 37.3667 64.5762 37.5C64.1762 37.5667 63.8262 37.5333 63.5262 37.4C63.2595 37.2667 63.0428 37.0833 62.8762 36.85C62.7095 36.6167 62.5762 36.35 62.4762 36.05C62.4095 35.75 62.3595 35.45 62.3262 35.15ZM46.2262 42.05C47.6928 42.1167 49.2762 42.1667 50.9762 42.2C52.6762 42.2333 54.3428 42.2667 55.9762 42.3C57.6428 42.3333 59.1928 42.3667 60.6262 42.4C62.0928 42.4333 63.3095 42.4667 64.2762 42.5L67.1262 42.6C67.6595 42.6333 68.1928 42.8167 68.7262 43.15C69.2928 43.45 69.6595 44.0333 69.8262 44.9C69.9595 45.6 69.8428 46.1167 69.4762 46.45C69.1428 46.8167 68.5762 46.9667 67.7762 46.9C67.2095 46.8333 66.4928 46.75 65.6262 46.65C64.7928 46.5833 64.0428 46.5167 63.3762 46.45C62.5762 46.3833 61.5595 46.3 60.3262 46.2C59.1262 46.1333 57.7095 46.0833 56.0762 46.05C53.8095 46.0167 51.8762 45.9833 50.2762 45.95C48.7095 45.9167 47.1762 45.8667 45.6762 45.8C44.1095 45.6333 43.4095 44.9333 43.5762 43.7C43.7428 42.5 44.6262 41.95 46.2262 42.05ZM80.6945 11C80.9945 10.8667 81.3779 10.8 81.8445 10.8C82.3445 10.8 82.8445 10.8333 83.3445 10.9C83.8779 10.9333 84.3779 11 84.8445 11.1C85.3445 11.2 85.7279 11.2833 85.9945 11.35C87.7612 11.8167 89.1945 12.4833 90.2945 13.35C91.3945 14.1833 92.4279 15.4167 93.3945 17.05C94.5279 18.95 95.1779 20.8333 95.3445 22.7C95.5112 24.5667 95.1445 26.55 94.2445 28.65C93.8112 29.6167 93.1445 30.4833 92.2445 31.25C91.3779 31.9833 90.3945 32.6 89.2945 33.1C88.2279 33.6 87.1112 33.9833 85.9445 34.25C84.8112 34.4833 83.7779 34.6 82.8445 34.6C80.8779 34.6 79.2779 34.2167 78.0445 33.45C76.8445 32.6833 75.9279 31.6833 75.2945 30.45C74.6612 29.1833 74.2945 27.7667 74.1945 26.2C74.1279 24.6333 74.2445 23.0667 74.5445 21.5C74.8779 19.9 75.3779 18.3667 76.0445 16.9C76.7112 15.4333 77.4945 14.1667 78.3945 13.1C78.7612 12.6667 79.0945 12.2833 79.3945 11.95C79.6945 11.5833 80.1279 11.2667 80.6945 11ZM89.7445 18.2C89.0445 17.0333 88.0445 16.1167 86.7445 15.45C85.4779 14.7833 84.1445 14.45 82.7445 14.45C82.3779 14.45 82.0945 14.5167 81.8945 14.65C81.6945 14.75 81.5279 14.9 81.3945 15.1C81.2612 15.3 81.1279 15.5333 80.9945 15.8C80.8612 16.0333 80.6779 16.2833 80.4445 16.55C79.9112 17.1833 79.4279 17.9833 78.9945 18.95C78.5612 19.9167 78.2279 20.9333 77.9945 22C77.7612 23.0667 77.6445 24.15 77.6445 25.25C77.6779 26.3167 77.8779 27.2833 78.2445 28.15C78.6112 29.0167 79.1779 29.7167 79.9445 30.25C80.7445 30.7833 81.7779 31.05 83.0445 31.05C83.8445 31.05 84.6445 30.95 85.4445 30.75C86.2445 30.5167 86.9779 30.2167 87.6445 29.85C88.3445 29.4833 88.9445 29.05 89.4445 28.55C89.9779 28.0167 90.3779 27.45 90.6445 26.85C91.3112 25.45 91.5445 24.0333 91.3445 22.6C91.1445 21.1667 90.6112 19.7 89.7445 18.2ZM85.9445 50.5C85.2112 50.5667 84.6279 50.55 84.1945 50.45C83.7612 50.35 83.4279 50.15 83.1945 49.85C82.9612 49.55 82.8112 49.15 82.7445 48.65C82.7112 48.15 82.7112 47.5333 82.7445 46.8C82.8112 45.7667 82.8279 44.9167 82.7945 44.25C82.7945 43.5833 82.7945 42.8333 82.7945 42C82.7945 41.5667 82.7445 41.1667 82.6445 40.8C82.5445 40.4333 82.4445 40.1 82.3445 39.8C81.9779 38.2333 82.4779 37.3 83.8445 37C84.5445 36.8667 85.1112 37.0167 85.5445 37.45C86.0112 37.85 86.2779 38.4667 86.3445 39.3C86.4112 40.4 86.4612 41.45 86.4945 42.45C86.5279 43.45 86.5779 44.3833 86.6445 45.25C86.6112 45.6833 86.5945 46.0167 86.5945 46.25C86.5945 46.4833 86.6445 46.65 86.7445 46.75C86.8445 46.85 87.0279 46.9 87.2945 46.9C87.5612 46.9333 87.9279 46.95 88.3945 46.95C89.0612 46.95 90.0112 46.9167 91.2445 46.85C92.5112 46.7833 93.8612 46.7167 95.2945 46.65C96.7612 46.5833 98.2112 46.5333 99.6445 46.5C101.111 46.4667 102.378 46.4833 103.445 46.55C103.811 46.5833 104.161 46.5833 104.495 46.55C104.861 46.5167 105.228 46.5333 105.595 46.6C106.261 46.7 106.761 46.9667 107.095 47.4C107.428 47.8333 107.561 48.3167 107.495 48.85C107.428 49.35 107.195 49.75 106.795 50.05C106.395 50.3833 105.928 50.55 105.395 50.55C105.128 50.55 104.828 50.5 104.495 50.4C104.195 50.3 103.911 50.2167 103.645 50.15C102.478 50.05 101.045 50 99.3445 50C97.6445 50.0333 95.9279 50.0667 94.1945 50.1C92.4612 50.1667 90.8279 50.2333 89.2945 50.3C87.7945 50.4 86.6779 50.4667 85.9445 50.5ZM102.845 35.85C102.778 35.1167 102.711 34.1667 102.645 33C102.611 31.8 102.578 30.5 102.545 29.1C102.511 27.6667 102.495 26.2 102.495 24.7C102.495 23.1667 102.495 21.6833 102.495 20.25C102.528 18.8167 102.561 17.5 102.595 16.3C102.628 15.0667 102.678 14.05 102.745 13.25C102.911 12.05 103.511 11.45 104.545 11.45C105.045 11.45 105.461 11.6333 105.795 12C106.161 12.3333 106.328 12.8167 106.295 13.45C106.261 14.25 106.228 15.2 106.195 16.3C106.161 17.3667 106.128 18.5 106.095 19.7C106.095 20.8667 106.078 22.0333 106.045 23.2C106.045 24.3667 106.045 25.4167 106.045 26.35C106.045 26.8833 106.061 27.6 106.095 28.5C106.128 29.3667 106.145 30.2833 106.145 31.25C106.178 32.2167 106.211 33.15 106.245 34.05C106.278 34.9167 106.295 35.6 106.295 36.1C106.295 36.6667 106.128 37.0833 105.795 37.35C105.461 37.5833 105.078 37.7 104.645 37.7C104.178 37.7 103.778 37.55 103.445 37.25C103.111 36.95 102.911 36.4833 102.845 35.85Z" fill="#A18585"/>
</svg>
