<svg width="current" height="current" viewBox="0 0 159 63" fill="none" xmlns="http://www.w3.org/2000/svg">
<rect y="32" width="159" height="26" fill="#FDF9D2"/>
<path d="M9.8 28.8C9.96667 27.9 10.3 27.05 10.8 26.25C11.3 25.45 11.9333 24.75 12.7 24.15C13.4667 23.5167 14.3333 22.9833 15.3 22.55C16.3 22.1167 17.35 21.8 18.45 21.6C18.45 21.3333 18.65 21.1333 19.05 21C19.45 20.8333 19.8667 20.7333 20.3 20.7C20.9667 20.6333 21.65 20.7 22.35 20.9C23.0833 21.1 23.7833 21.35 24.45 21.65C25.7167 22.2167 26.7167 23.1 27.45 24.3C28.2167 25.4667 28.5667 26.8 28.5 28.3C28.4333 29.6667 28.2 30.85 27.8 31.85C27.4 32.8167 26.8667 33.65 26.2 34.35C25.5667 35.0167 24.8333 35.5667 24 36C23.1667 36.4333 22.2833 36.7667 21.35 37C21.4167 37.9667 21.4667 38.9167 21.5 39.85C21.5667 40.7833 21.5667 41.3667 21.5 41.6C22.3667 41.6 23.2167 41.6167 24.05 41.65C24.8833 41.65 25.6833 41.6667 26.45 41.7C27.95 41.7667 29.1333 41.7667 30 41.7C30.5667 41.6667 31.0833 41.7833 31.55 42.05C32.0167 42.3167 32.2833 42.7 32.35 43.2C32.4167 43.6667 32.3167 44.15 32.05 44.65C31.7833 45.1167 31.3 45.35 30.6 45.35C29.9 45.35 29.2333 45.3 28.6 45.2C27.9667 45.1333 27.2667 45.0667 26.5 45C25.5333 44.9667 24.5 44.95 23.4 44.95C22.3 44.95 21.1833 44.9667 20.05 45C18.9167 45.0333 17.7833 45.0667 16.65 45.1C15.55 45.1667 14.5 45.2333 13.5 45.3C12.9667 45.3667 12.4833 45.4333 12.05 45.5C11.6167 45.5667 11.25 45.6 10.95 45.6C10.1833 45.6 9.58333 45.4833 9.15 45.25C8.75 45.0167 8.46667 44.6167 8.3 44.05C8.23333 43.55 8.33333 43.1167 8.6 42.75C8.9 42.35 9.25 42.1333 9.65 42.1C10.4167 42.0333 11.1833 41.9833 11.95 41.95C12.7167 41.9167 13.5 41.8667 14.3 41.8C14.9333 41.7333 15.4833 41.7 15.95 41.7C16.45 41.7 16.9833 41.6667 17.55 41.6L17.4 37.45C15.1 37.4833 13.2333 36.9 11.8 35.7C10.3667 34.4667 9.65 32.75 9.65 30.55C9.65 29.95 9.7 29.3667 9.8 28.8ZM36.75 31.75C36.8167 30.1167 36.8667 28.65 36.9 27.35C36.9333 26.05 36.9667 24.8167 37 23.65C37.0333 22.4833 37.05 21.35 37.05 20.25C37.05 19.1167 37.05 17.9167 37.05 16.65C37.05 15.9833 37.1833 15.4 37.45 14.9C37.75 14.3667 38.2667 14.1 39 14.1C40.6 14.1 41.35 14.95 41.25 16.65C41.1167 18.5833 41.0333 20.6 41 22.7C41 24.8 40.9667 26.85 40.9 28.85C40.8333 31.0833 40.75 33.2667 40.65 35.4C40.5833 37.5 40.55 39.8 40.55 42.3C40.6167 42.6 40.65 42.9167 40.65 43.25C40.6833 43.5833 40.7 43.9833 40.7 44.45C40.7 45.0833 40.4833 45.6167 40.05 46.05C39.6167 46.5167 39.0833 46.75 38.45 46.75C37.85 46.75 37.3667 46.5833 37 46.25C36.6667 45.95 36.5 45.5167 36.5 44.95C36.5 43.55 36.55 41.7833 36.65 39.65C36.75 37.5167 36.7833 34.8833 36.75 31.75ZM13.25 29.45C13.0833 30.1833 13.0833 30.8667 13.25 31.5C13.4167 32.1 13.7167 32.6167 14.15 33.05C14.5833 33.4833 15.1167 33.8167 15.75 34.05C16.3833 34.25 17.0833 34.3167 17.85 34.25C18.65 34.2167 19.45 34.1167 20.25 33.95C21.0833 33.75 21.8333 33.4333 22.5 33C23.1667 32.5333 23.7167 31.9167 24.15 31.15C24.5833 30.3833 24.8167 29.4 24.85 28.2C24.8833 27.3333 24.5833 26.5333 23.95 25.8C23.35 25.0667 22.65 24.6 21.85 24.4C21.7167 24.6 21.4833 24.7333 21.15 24.8C20.85 24.8667 20.5167 24.9 20.15 24.9C19.7833 24.9 19.4167 24.9 19.05 24.9C18.7167 24.8667 18.4333 24.8833 18.2 24.95C16.7 25.2833 15.55 25.8833 14.75 26.75C13.95 27.5833 13.45 28.4833 13.25 29.45ZM11.8 19.9C11.3333 19.9333 10.9333 19.8 10.6 19.5C10.2667 19.2 10.0667 18.8167 10 18.35C9.96667 17.8833 10.1 17.4667 10.4 17.1C10.7 16.7333 11.1 16.5167 11.6 16.45C12.6333 16.35 13.75 16.2667 14.95 16.2C16.15 16.1 17.3667 16.0333 18.6 16C19.8333 15.9667 21.05 15.95 22.25 15.95C23.45 15.95 24.6 15.9833 25.7 16.05C27.1667 16.2167 27.8167 16.8333 27.65 17.9C27.65 18.3 27.5167 18.65 27.25 18.95C26.9833 19.2167 26.6167 19.3667 26.15 19.4C25.8833 19.4333 25.6167 19.4667 25.35 19.5C25.1167 19.5333 24.8833 19.5333 24.65 19.5C22.65 19.2333 20.5167 19.2 18.25 19.4C15.9833 19.5667 13.8333 19.7333 11.8 19.9ZM11.75 13.9C11.1167 13.9 10.6167 13.75 10.25 13.45C9.91667 13.15 9.75 12.75 9.75 12.25C9.75 11.7833 9.9 11.4333 10.2 11.2C10.5 10.9333 10.9 10.8 11.4 10.8C11.8 10.8 12.2667 10.8167 12.8 10.85C13.3333 10.85 13.8833 10.8667 14.45 10.9C15.0167 10.9 15.5667 10.9167 16.1 10.95C16.6667 10.95 17.15 10.95 17.55 10.95C18.2833 10.95 19.1667 10.9833 20.2 11.05C21.2667 11.1167 22.2333 11.2 23.1 11.3C23.6333 11.3667 24 11.5833 24.2 11.95C24.4 12.2833 24.4667 12.6667 24.4 13.1C24.3 14.1667 23.6333 14.6833 22.4 14.65C22.1667 14.65 21.6 14.5833 20.7 14.45C19.8 14.2833 18.75 14.1667 17.55 14.1C16.75 14.0333 15.8833 13.9833 14.95 13.95C14.05 13.9167 12.9833 13.9 11.75 13.9ZM65.5047 18.25C65.5047 19.95 65.188 21.4667 64.5547 22.8C63.9214 24.1333 63.038 25.25 61.9047 26.15C60.7714 27.05 59.438 27.7333 57.9047 28.2C56.4047 28.6667 54.788 28.8833 53.0547 28.85C51.788 28.8167 50.588 28.4167 49.4547 27.65C48.3214 26.8833 47.4214 25.9167 46.7547 24.75C45.9214 23.2167 45.5214 21.5667 45.5547 19.8C45.6214 18 45.9214 16.3333 46.4547 14.8C46.5214 14.6 46.638 14.35 46.8047 14.05C46.9714 13.7167 47.1547 13.4 47.3547 13.1C47.5547 12.7667 47.7547 12.4833 47.9547 12.25C48.188 12.0167 48.4047 11.8667 48.6047 11.8C48.838 11.7333 49.138 11.7333 49.5047 11.8C49.9047 11.8667 50.138 12.1167 50.2047 12.55C50.7714 11.6833 51.6047 11 52.7047 10.5C53.8047 10 54.938 9.75 56.1047 9.75C57.3047 9.75 58.4714 9.95 59.6047 10.35C60.738 10.7167 61.738 11.2667 62.6047 12C63.5047 12.7 64.2047 13.5833 64.7047 14.65C65.238 15.7167 65.5047 16.9167 65.5047 18.25ZM57.5547 13.3C56.6214 13.2 55.7047 13.3 54.8047 13.6C53.9047 13.9 53.238 14.3167 52.8047 14.85C52.538 15.1833 52.338 15.5333 52.2047 15.9C52.1047 16.2667 52.0047 16.6 51.9047 16.9C51.8047 17.2 51.688 17.45 51.5547 17.65C51.4547 17.85 51.288 17.95 51.0547 17.95C50.8547 17.95 50.6214 17.9333 50.3547 17.9C50.1214 17.8667 49.9214 17.7667 49.7547 17.6C49.5214 18.3667 49.3547 19.2667 49.2547 20.3C49.1547 21.3 49.4547 22.35 50.1547 23.45C50.588 24.1167 51.1714 24.6333 51.9047 25C52.6714 25.3333 53.488 25.5 54.3547 25.5C55.088 25.5 55.9047 25.3667 56.8047 25.1C57.738 24.8333 58.588 24.4167 59.3547 23.85C60.1214 23.2833 60.7714 22.5667 61.3047 21.7C61.838 20.8 62.1047 19.7167 62.1047 18.45C62.1047 17.1833 61.688 16.05 60.8547 15.05C60.0214 14.0167 58.9214 13.4333 57.5547 13.3ZM72.1047 19.6C72.1714 18.8333 72.3214 18.2833 72.5547 17.95C72.8214 17.6167 73.238 17.45 73.8047 17.45C74.438 17.45 74.8714 17.6167 75.1047 17.95C75.3714 18.25 75.5047 18.7833 75.5047 19.55C75.5047 20.7167 75.5047 22.1833 75.5047 23.95C75.5047 25.6833 75.5047 27.5333 75.5047 29.5C75.5047 31.4333 75.488 33.3833 75.4547 35.35C75.4547 37.3167 75.438 39.1167 75.4047 40.75C75.3714 41.2833 75.2214 41.75 74.9547 42.15C74.7214 42.5167 74.3214 42.7 73.7547 42.7C73.2547 42.7 72.8547 42.5833 72.5547 42.35C72.2547 42.0833 72.088 41.6833 72.0547 41.15L71.9547 37.85C71.5214 37.8833 70.888 37.95 70.0547 38.05C69.2214 38.1167 68.3547 38.1833 67.4547 38.25C66.5547 38.3167 65.7047 38.3833 64.9047 38.45C64.1047 38.5167 63.5214 38.55 63.1547 38.55C61.9214 38.55 61.3047 38.05 61.3047 37.05C61.3047 36.55 61.4214 36.1667 61.6547 35.9C61.888 35.6333 62.3214 35.4667 62.9547 35.4C63.488 35.3667 64.1714 35.3167 65.0047 35.25C65.8714 35.1833 66.7547 35.1167 67.6547 35.05C68.5547 34.9833 69.4047 34.9167 70.2047 34.85C71.0047 34.7833 71.6047 34.7167 72.0047 34.65C72.0047 33.75 72.0047 32.6333 72.0047 31.3C72.038 29.9667 72.0547 28.6 72.0547 27.2C72.0547 25.7667 72.0547 24.3833 72.0547 23.05C72.088 21.6833 72.1047 20.5333 72.1047 19.6ZM53.8547 37.25C53.988 36.8833 54.138 36.5167 54.3047 36.15C54.5047 35.75 54.7047 35.3333 54.9047 34.9C55.0714 34.6 55.2214 34.2833 55.3547 33.95C55.5214 33.6167 55.688 33.3167 55.8547 33.05C54.7547 33.2167 53.6047 33.4 52.4047 33.6C51.2047 33.7667 49.7547 33.9833 48.0547 34.25C47.4214 34.3167 46.938 34.2333 46.6047 34C46.3047 33.7333 46.1047 33.3667 46.0047 32.9C45.9047 32.6 45.9714 32.25 46.2047 31.85C46.438 31.45 46.9214 31.2 47.6547 31.1C48.588 30.9333 49.738 30.7667 51.1047 30.6C52.5047 30.4 53.9047 30.2333 55.3047 30.1C56.7047 29.9333 58.0047 29.8 59.2047 29.7C60.438 29.5667 61.388 29.4833 62.0547 29.45C62.388 29.4167 62.7714 29.3833 63.2047 29.35C63.638 29.3167 64.088 29.3 64.5547 29.3C65.0547 29.3 65.538 29.3167 66.0047 29.35C66.4714 29.35 66.9047 29.3667 67.3047 29.4C68.6047 29.5667 69.2047 30.15 69.1047 31.15C68.9714 32.15 68.2547 32.6333 66.9547 32.6C65.9547 32.6 64.7547 32.6 63.3547 32.6C61.9547 32.6 60.6714 32.6833 59.5047 32.85C59.1714 33.8167 58.8047 34.7833 58.4047 35.75C58.0047 36.6833 57.6214 37.65 57.2547 38.65C57.0214 39.4167 56.788 40.0667 56.5547 40.6C56.3214 41.1 56.1714 41.5833 56.1047 42.05C55.938 42.5833 55.6547 42.9833 55.2547 43.25C54.8547 43.5167 54.3214 43.5833 53.6547 43.45C53.288 43.35 53.0214 43.2 52.8547 43C52.688 42.8 52.588 42.5667 52.5547 42.3C52.5214 42.0333 52.5214 41.75 52.5547 41.45C52.6214 41.15 52.688 40.85 52.7547 40.55C52.8547 39.9833 53.0047 39.4333 53.2047 38.9C53.438 38.3333 53.6547 37.7833 53.8547 37.25ZM59.0547 49.4C58.8547 48.2667 58.7214 46.9667 58.6547 45.5C58.588 44.0667 58.588 42.7667 58.6547 41.6C58.688 41.0333 58.8714 40.5833 59.2047 40.25C59.5714 39.9167 60.0047 39.75 60.5047 39.75C61.0714 39.75 61.5047 39.9333 61.8047 40.3C62.138 40.6667 62.288 41.1333 62.2547 41.7C62.2214 42.7 62.2214 43.8 62.2547 45C62.3214 46.2 62.438 47.3167 62.6047 48.35C62.7047 49.0167 63.1547 49.3167 63.9547 49.25C65.288 49.2167 66.438 49.15 67.4047 49.05C68.3714 48.9833 69.3047 48.9167 70.2047 48.85C71.1047 48.7833 72.0214 48.7167 72.9547 48.65C73.9214 48.5833 75.0547 48.55 76.3547 48.55C77.888 48.55 78.688 49.0333 78.7547 50C78.788 51.1 78.3214 51.7167 77.3547 51.85C76.988 51.9167 76.5047 51.9 75.9047 51.8C75.3047 51.7 74.7714 51.65 74.3047 51.65C73.1714 51.7167 72.1714 51.7833 71.3047 51.85C70.4714 51.95 69.6547 52.0333 68.8547 52.1C68.0547 52.1667 67.2047 52.2333 66.3047 52.3C65.4047 52.3667 64.338 52.4167 63.1047 52.45C61.938 52.4833 61.0047 52.3 60.3047 51.9C59.638 51.5 59.2214 50.6667 59.0547 49.4ZM120.755 28.7C119.555 28.7667 118.288 28.8 116.955 28.8C115.621 28.8 114.438 28.7667 113.405 28.7C113.405 29.3667 113.405 30.15 113.405 31.05C113.405 31.95 113.388 32.9167 113.355 33.95C113.355 34.95 113.355 35.9833 113.355 37.05C113.355 38.0833 113.355 39.0667 113.355 40C113.355 40.9 113.371 41.7667 113.405 42.6C113.471 43.4 113.488 44.2833 113.455 45.25C113.421 46.8833 112.705 47.7 111.305 47.7C110.671 47.7 110.188 47.5333 109.855 47.2C109.521 46.9 109.338 46.5167 109.305 46.05C109.271 45.3167 109.371 44.5833 109.605 43.85C109.605 43.0833 109.605 42.0833 109.605 40.85C109.605 39.6167 109.588 38.35 109.555 37.05C109.555 35.7167 109.555 34.45 109.555 33.25C109.555 32.0167 109.555 31.0167 109.555 30.25V15.95C109.555 15.2167 109.738 14.6667 110.105 14.3C110.471 13.9333 110.905 13.75 111.405 13.75C111.871 13.75 112.288 13.95 112.655 14.35C113.055 14.7167 113.255 15.2667 113.255 16C113.255 17.5 113.221 19.0333 113.155 20.6C113.121 22.1667 113.138 23.75 113.205 25.35C114.371 25.3833 115.588 25.4 116.855 25.4C118.155 25.4 119.455 25.3667 120.755 25.3C121.355 25.2667 121.838 25.4167 122.205 25.75C122.605 26.05 122.805 26.4333 122.805 26.9C122.805 27.3333 122.638 27.7333 122.305 28.1C121.971 28.4333 121.455 28.6333 120.755 28.7ZM87.3047 38.65C88.138 37.55 89.088 36.25 90.1547 34.75C91.2214 33.25 92.3214 31.7 93.4547 30.1C94.588 28.5 95.7047 26.9 96.8047 25.3C97.938 23.6667 98.988 22.1667 99.9547 20.8C98.0214 20.7 95.7547 20.5833 93.1547 20.45C90.588 20.3167 87.9547 20.1 85.2547 19.8C83.6214 19.6 82.9047 18.8167 83.1047 17.45C83.1714 16.95 83.388 16.5833 83.7547 16.35C84.1547 16.0833 84.588 15.95 85.0547 15.95C85.4547 15.95 85.838 16 86.2047 16.1C86.5714 16.1667 86.938 16.2667 87.3047 16.4C89.638 16.6333 91.9714 16.8 94.3047 16.9C96.6714 17 98.9547 17.0833 101.155 17.15C101.955 17.15 102.588 17.3 103.055 17.6C103.555 17.9 103.888 18.3 104.055 18.8C104.221 19.2667 104.255 19.8 104.155 20.4C104.055 21 103.805 21.6167 103.405 22.25C102.371 23.85 101.305 25.4667 100.205 27.1C99.138 28.7333 98.088 30.3 97.0547 31.8C96.0547 33.3 95.088 34.7167 94.1547 36.05C93.2214 37.3833 92.388 38.55 91.6547 39.55C91.5547 39.95 91.4214 40.3667 91.2547 40.8C91.1214 41.2333 90.8714 41.6833 90.5047 42.15C89.8714 42.9167 89.188 43.3667 88.4547 43.5C87.7547 43.6 87.1214 43.4167 86.5547 42.95C85.9547 42.3833 85.738 41.7333 85.9047 41C86.0714 40.2667 86.5214 39.4833 87.2547 38.65H87.3047ZM131.353 11.25C131.653 11.1167 132.036 11.05 132.503 11.05C133.003 11.05 133.503 11.0833 134.003 11.15C134.536 11.1833 135.036 11.25 135.503 11.35C136.003 11.45 136.386 11.5333 136.653 11.6C138.419 12.0667 139.853 12.7333 140.953 13.6C142.053 14.4333 143.086 15.6667 144.053 17.3C145.186 19.2 145.836 21.0833 146.003 22.95C146.169 24.8167 145.803 26.8 144.903 28.9C144.469 29.8667 143.803 30.7333 142.903 31.5C142.036 32.2333 141.053 32.85 139.953 33.35C138.886 33.85 137.769 34.2333 136.603 34.5C135.469 34.7333 134.436 34.85 133.503 34.85C131.536 34.85 129.936 34.4667 128.703 33.7C127.503 32.9333 126.586 31.9333 125.953 30.7C125.319 29.4333 124.953 28.0167 124.853 26.45C124.786 24.8833 124.903 23.3167 125.203 21.75C125.536 20.15 126.036 18.6167 126.703 17.15C127.369 15.6833 128.153 14.4167 129.053 13.35C129.419 12.9167 129.753 12.5333 130.053 12.2C130.353 11.8333 130.786 11.5167 131.353 11.25ZM140.503 42.5C141.836 42.2333 143.169 42.0333 144.503 41.9C145.836 41.7667 147.119 41.6833 148.353 41.65C148.286 41.3167 148.253 41.15 148.253 41.15C148.219 40.95 148.169 40.7167 148.103 40.45C148.036 40.1833 147.919 39.7167 147.753 39.05C147.653 38.5167 147.753 38.05 148.053 37.65C148.386 37.25 148.803 37 149.303 36.9C149.903 36.8333 150.419 36.9667 150.853 37.3C151.286 37.6 151.536 38.05 151.603 38.65C151.636 38.95 151.653 39.2333 151.653 39.5C151.653 39.7333 151.653 39.9667 151.653 40.2C151.753 40.7 151.836 41.3333 151.903 42.1C152.003 42.8333 152.086 43.6333 152.153 44.5C152.219 45.3333 152.253 46.1667 152.253 47C152.286 47.8667 152.286 48.6667 152.253 49.4C152.153 50.5333 151.869 51.2833 151.403 51.65C150.936 52.05 150.086 52.25 148.853 52.25C148.253 52.25 147.553 52.2667 146.753 52.3C145.986 52.3667 145.219 52.4333 144.453 52.5C143.719 52.5667 143.036 52.6167 142.403 52.65C141.803 52.7167 141.353 52.75 141.053 52.75C140.319 52.8167 139.686 52.8333 139.153 52.8C138.653 52.7667 138.219 52.6333 137.853 52.4C137.519 52.2 137.253 51.8833 137.053 51.45C136.853 51.0167 136.703 50.4167 136.603 49.65C136.536 49.1833 136.503 48.5833 136.503 47.85C136.536 47.15 136.569 46.4 136.603 45.6C136.669 44.8 136.736 44 136.803 43.2C136.869 42.4 136.936 41.6833 137.003 41.05C137.036 40.75 137.053 40.4667 137.053 40.2C137.053 39.9 137.053 39.6167 137.053 39.35C137.086 38.6833 137.319 38.2 137.753 37.9C138.186 37.5667 138.686 37.4333 139.253 37.5C139.686 37.5667 140.069 37.7333 140.403 38C140.736 38.2667 140.886 38.6833 140.853 39.25C140.853 39.5167 140.819 39.8 140.753 40.1C140.719 40.3667 140.686 40.6833 140.653 41.05L140.503 42.5ZM140.453 18.4C139.753 17.2333 138.753 16.3167 137.453 15.65C136.153 14.95 134.786 14.6 133.353 14.6C132.953 14.6 132.653 14.6667 132.453 14.8C132.253 14.9 132.086 15.05 131.953 15.25C131.819 15.45 131.686 15.6833 131.553 15.95C131.419 16.1833 131.236 16.4333 131.003 16.7C130.436 17.3333 129.919 18.15 129.453 19.15C129.019 20.1167 128.686 21.15 128.453 22.25C128.219 23.35 128.119 24.45 128.153 25.55C128.186 26.65 128.386 27.65 128.753 28.55C129.153 29.4167 129.753 30.1333 130.553 30.7C131.353 31.2333 132.386 31.5 133.653 31.5C134.486 31.5 135.303 31.4 136.103 31.2C136.903 30.9667 137.653 30.6667 138.353 30.3C139.053 29.9333 139.669 29.4833 140.203 28.95C140.736 28.4167 141.136 27.85 141.403 27.25C142.069 25.85 142.303 24.4 142.103 22.9C141.903 21.4 141.353 19.9 140.453 18.4ZM154.753 22.5C154.586 23.9667 154.486 25.3333 154.453 26.6C154.453 27.8333 154.436 29.2 154.403 30.7C154.503 31.0667 154.569 31.4667 154.603 31.9C154.669 32.3 154.653 32.7 154.553 33.1C154.386 33.6667 154.069 34.1167 153.603 34.45C153.136 34.75 152.569 34.85 151.903 34.75C151.036 34.7167 150.519 34.4667 150.353 34C150.186 33.5 150.153 32.9333 150.253 32.3L150.553 29.5C150.619 28.9667 150.669 28.3333 150.703 27.6C150.736 26.8667 150.753 26.0833 150.753 25.25C150.786 24.4167 150.819 23.5667 150.853 22.7C150.886 21.8333 150.936 21 151.003 20.2L151.503 13.85C151.569 13.0167 151.786 12.4667 152.153 12.2C152.519 11.9333 152.936 11.8167 153.403 11.85C153.903 11.8833 154.353 12.0833 154.753 12.45C155.153 12.8167 155.319 13.3833 155.253 14.15C155.186 15.65 155.119 17.0333 155.053 18.3C155.019 19.5333 154.919 20.9333 154.753 22.5ZM139.953 47.8C139.986 48.5 140.069 48.9333 140.203 49.1C140.336 49.2667 140.786 49.3167 141.553 49.25C141.919 49.25 142.369 49.2333 142.903 49.2C143.436 49.1667 143.986 49.1167 144.553 49.05C145.153 49.0167 145.719 48.9833 146.253 48.95C146.819 48.9167 147.303 48.9 147.703 48.9C148.203 48.8333 148.503 48.7167 148.603 48.55C148.736 48.3833 148.819 48.1167 148.853 47.75C148.886 47.2833 148.886 46.8167 148.853 46.35C148.853 45.9167 148.819 45.45 148.753 44.95C147.253 44.95 145.786 45.0167 144.353 45.15C142.953 45.3167 141.503 45.5333 140.003 45.8C139.936 46.2333 139.903 46.5833 139.903 46.85C139.903 47.1167 139.919 47.4333 139.953 47.8Z" fill="#A18585"/>
</svg>
